<?xml version="1.0" encoding="utf-8"?>
<!-- Svg Vector Icons : http://www.onlinewebfonts.com/icon -->
<!DOCTYPE svg PUBLIC "-//W3C//DTD SVG 1.1//EN" "http://www.w3.org/Graphics/SVG/1.1/DTD/svg11.dtd">
<svg version="1.1" xmlns="http://www.w3.org/2000/svg" xmlns:xlink="http://www.w3.org/1999/xlink" x="0px" y="0px" viewBox="0 0 1000 1000" enable-background="new 0 0 1000 1000" xml:space="preserve">
<metadata> Svg Vector Icons : http://www.onlinewebfonts.com/icon </metadata>
<g><g><path d="M970.6,521.9L834,385.9c-27.1-27.1-71-27.2-98.2-0.3l-96.1,95.1l-95.1-94.8c-27.1-27.1-70.9-27.7-98.2-0.8l-157,154.8h-24.8L238,60.8c-1-11.7-10.8-19.9-22.5-19.9h-87.1c-11.7,0-21.5,8.2-22.5,19.9L79.4,539.9H76c-35.8,0-66,30.5-66,66.2v288.4c0,35.7,30.3,64.7,66,64.7h848.7c35.7,0,65.3-29,65.3-64.7V568C990,550.7,982.8,534.1,970.6,521.9z M462.7,851c0,8.7-6.4,15.5-15.1,15.5h-41.4c-8.7,0-15.6-6.8-15.6-15.5V650.7c0-8.7,6.8-15.7,15.6-15.7h41.4c8.7,0,15.1,7,15.1,15.7V851z M606.7,851c0,8.7-6.2,15.5-14.9,15.5h-41.4c-8.6,0-15.7-6.8-15.7-15.5V650.7c0-8.7,7.1-15.7,15.7-15.7h41.4c8.7,0,14.9,7,14.9,15.7V851z M753.3,851c0,8.7-7.7,15.5-16.4,15.5h-41.4c-8.7,0-16.8-6.8-16.8-15.5V650.7c0-8.7,8.1-15.7,16.8-15.7H737c8.7,0,16.4,7,16.4,15.7V851z M897.4,851c0,8.7-7.4,15.5-16.2,15.5h-41.4c-8.7,0-17-6.8-17-15.5V650.7c0-8.7,8.3-15.7,17-15.7h41.4c8.7,0,16.2,7,16.2,15.7V851z"/></g><g></g><g></g><g></g><g></g><g></g><g></g><g></g><g></g><g></g><g></g><g></g><g></g><g></g><g></g><g></g></g>
</svg>